# AST/ASF file generated using VICON BodyLanguage
# -----------------------------------------------
:version 1.10
:name VICON
:units
  mass 1.0
  length 0.45
  angle deg
:documentation
   .ast/.asf automatically generated from VICON data using
   VICON BodyBuilder and BodyLanguage model FoxedUp or BRILLIANT.MOD
:root
   order TX TY TZ RX RY RZ
   axis XYZ
   position 0 0 0  
   orientation 0 0 0 
:bonedata
  begin
     id 1 
     name lhipjoint
     direction 0.57768 -0.667037 0.470475 
     length 2.36008 
     axis 0 0 0  XYZ
  end
  begin
     id 2 
     name lfemur
     direction 0.34202 -0.939693 0  
     length 6.97235  
     axis 0 0 20  XYZ
    dof rx ry rz
    limits (-160.0 20.0)
           (-70.0 70.0)
           (-60.0 70.0)
  end
  begin
     id 3 
     name ltibia
     direction 0.34202 -0.939693 0   
     length 6.93428   
     axis 0 0 20   XYZ
    dof rx
    limits (-10.0 170.0)
  end
  begin
     id 4 
     name lfoot
     direction 0.133018 -0.365463 0.921272   
     length 2.18603   
     axis -90 7.62852e-016 20   XYZ
    dof rx rz
    limits (-45.0 90.0)
           (-70.0 20.0)
  end
  begin
     id 5 
     name ltoes
     direction 1.53519e-011 -4.22055e-011 1   
     length 1.07924   
     axis -90 7.62852e-016 20   XYZ
    dof rx
    limits (-90.0 20.0)
  end
  begin
     id 6 
     name rhipjoint
     direction -0.577712 -0.667019 0.470462   
     length 2.36015  
     axis 0 0 0  XYZ 
  end
  begin
     id 7 
     name rfemur
     direction -0.34202 -0.939693 0   
     length 6.71195   
     axis 0 0 -20   XYZ
    dof rx ry rz
    limits (-160.0 20.0)
           (-70.0 70.0)
           (-70.0 60.0)
  end
  begin
     id 8 
     name rtibia
     direction -0.34202 -0.939693 0   
     length 7.04592   
     axis 0 0 -20   XYZ
    dof rx
    limits (-10.0 170.0)
 end
 begin
     id 9 
     name rfoot
     direction -0.113796 -0.312651 0.943027   
     length 2.03846  
     axis -90 -7.62852e-016 -20   XYZ
    dof rx rz
    limits (-45.0 90.0)
           (-20.0 70.0)
  end
  begin
     id 10 
     name rtoes
     direction -1.53586e-011 -4.218e-011 1   
     length 1.01562   
     axis -90 -7.62852e-016 -20   XYZ
    dof rx
    limits (-90.0 20.0)
  end
  begin
     id 11 
     name lowerback
     direction -0.0417299 0.991937 -0.119667   
     length 2.05257   
     axis 0 0 0   XYZ
    dof rx ry rz
    limits (-20.0 45.0)
           (-30.0 30.0)
           (-30.0 30.0)
  end
  begin
     id 12 
     name upperback
     direction -0.00017666 0.999999 0.00105178   
     length 2.05693   
     axis 0 0 0   XYZ
    dof rx ry rz
    limits (-20.0 45.0)
           (-30.0 30.0)
           (-30.0 30.0)
  end
  begin
     id 13 
     name thorax
     direction 0.0185169 0.998203 0.0569866   
     length 2.0932   
     axis 0 0 0   XYZ
    dof rx ry rz
    limits (-20.0 45.0)
           (-30.0 30.0)
           (-30.0 30.0)
  end
  begin
     id 14 
     name lowerneck
     direction -0.0212406 0.982645 0.184277   
     length 1.72509   
     axis 0 0 0   XYZ
    dof rx ry rz
    limits (-20.0 45.0)
           (-30.0 30.0)
           (-30.0 30.0)
  end
  begin
     id 15 
     name upperneck
     direction 0.00528579 0.965323 -0.261004   
     length 1.76294   
     axis 0 0 0   XYZ
    dof rx ry rz
    limits (-20.0 45.0)
           (-30.0 30.0)
           (-30.0 30.0)
  end
  begin
     id 16
     name head
     direction 0.00695421 0.994078 -0.108445  
     length 1.78678  
     axis 0 0 0   XYZ
    dof rx ry rz
    limits (-20.0 45.0)
           (-30.0 30.0)
           (-30.0 30.0)
  end
  begin
     id 17 
     name lclavicle
     direction 0.97277 0.211305 -0.095232  
     length 3.84823  
     axis 0 0 0   XYZ
    dof ry rz
    limits (-20.0 10.0)
           (0.0 20.0)
  end
  begin
     id 18 
     name lhumerus
     direction 1 -4.48957e-011 -1.98313e-027   
     length 4.97185   
     axis 180 -30 -90   XYZ
    dof rx ry rz
    limits (-60.0 90.0)
           (-90.0 90.0)
           (-90.0 90.0)
  end
  begin
     id 19
     name lradius
     direction 1 -4.4898e-011 7.31063e-027   
     length 3.35811   
     axis 180 -30 -90   XYZ
    dof rx
    limits (-10.0 170.0)
  end
  begin
     id 20
     name lwrist
     direction 1 -4.48938e-011 9.95048e-027   
     length 1.67905   
     axis -8.75986e-015 90 90   XYZ
    dof ry
    limits (-180.0 0.0)
 end
  begin
     id 21 
     name lhand
     direction 1 -4.4901e-011 1.9901e-026   
     length 0.622776   
     axis -1.26985e-014 90 90   XYZ
    dof rx rz
    limits (-90.0 90.0)
           (-45.0 45.0)
  end
  begin
     id 22 
     name lfingers
     direction 1 -4.48961e-011 3.98019e-026   
     length 0.502098   
     axis -2.5397e-014 90 90   XYZ
    dof rx
    limits (0.0 90.0)
  end
  begin
     id 23
     name lthumb
     direction 0.707107 -6.34933e-011 0.707107   
     length 0.720915   
     axis -90 45 2.85299e-015   XYZ
    dof rx rz
    limits (-45.0 45.0)
           (-45.0 45.0)
  end
  begin
     id 24 
     name rclavicle
     direction -0.990867 0.133739 -0.0172226   
     length 3.78845  
     axis 0 0 0   XYZ 
    dof ry rz
    limits (-10.0 20.0)
           (-20.0 0.0)
  end
  begin
     id 25 
     name rhumerus
     direction -1 -4.48972e-011 -1.99267e-027  
     length 4.96493   
     axis 180 30 90   XYZ
    dof rx ry rz
    limits (-90.0 60.0)
           (-90.0 90.0)
           (-90.0 90.0)
  end
  begin
     id 26 
     name rradius
     direction -1 -4.48969e-011 8.96093e-027   
     length 3.34929   
     axis 180 30 90   XYZ
    dof rx
    limits (-10.0 170.0)
  end
  begin
     id 27 
     name rwrist
     direction -1 -4.48953e-011 9.95048e-027   
     length 1.67464   
     axis -8.75986e-015 -90 -90   XYZ
    dof ry
    limits (-180.0 0.0)
  end
  begin
     id 28
     name rhand
     direction -1 -4.49001e-011 1.9901e-026   
     length 0.638041   
     axis -1.26985e-014 -90 -90   XYZ
    dof rx rz
    limits (-90.0 90.0)
           (-45.0 45.0)
  end
  begin
     id 29
     name rfingers
     direction -1 -4.48967e-011 3.98019e-026   
     length 0.514405   
     axis -2.5397e-014 -90 -90   XYZ
    dof rx
    limits (0.0 90.0)
  end
  begin
     id 30
     name rthumb
     direction -0.707107 -6.34904e-011 0.707107   
     length 0.738586   
     axis -90 -45 -2.85299e-015   XYZ
    dof rx rz
    limits (-45.0 45.0)
           (-45.0 45.0)
  end
:hierarchy
  begin
    root lhipjoint rhipjoint lowerback
    lhipjoint lfemur
    lfemur ltibia
    ltibia lfoot
    lfoot ltoes
    rhipjoint rfemur
    rfemur rtibia
    rtibia rfoot
    rfoot rtoes
    lowerback upperback
    upperback thorax
    thorax lowerneck lclavicle rclavicle
    lowerneck upperneck
    upperneck head
    lclavicle lhumerus
    lhumerus lradius
    lradius lwrist
    lwrist lhand lthumb
    lhand lfingers
    rclavicle rhumerus
    rhumerus rradius
    rradius rwrist
    rwrist rhand rthumb
    rhand rfingers
  end

#!OML:ASF E:\Mandelcareful walks\Project 1\Capture day 1\Session 1\Subject1.ASF
:FULLY-SPECIFIED
:DEGREES
1
root -25.558 16.5167 1.4841 -167.05 28.5438 175.768
lowerback -23.0227 1.22811 8.24908
upperback -0.694443 -0.420475 1.2096
thorax 12.1214 0.365489 -3.47027
lowerneck -14.8314 10.2934 8.88468
upperneck 26.738 15.763 -7.14459
head 12.6325 7.47999 -1.54666
rclavicle 8.17999e-014 8.26944e-014
rhumerus 30.0588 69.8043 -69.7788
rradius 102.012
rwrist -7.16329
rhand -0.617813 -16.9464
rfingers 7.12502
rthumb 24.9985 -45.3308
lclavicle 8.17999e-014 8.26944e-014
lhumerus -16.8553 -48.9229 100.177
lradius 95.1803
lwrist 36.6665
lhand 2.54598 -11.2251
lfingers 7.12502
lthumb 28.0266 16.7019
rfemur -18.0747 -6.30283 24.6124
rtibia 24.0253
rfoot -33.8381 -30.7124
rtoes 21.6861
lfemur -30.3366 13.4939 -13.4426
ltibia 45.2646
lfoot -5.11753 15.6404
ltoes -11.8416
2
root -25.5543 16.5087 1.46583 -167.065 28.9068 175.945
lowerback -22.9452 1.3377 8.26977
upperback -0.608325 -0.291569 1.26624
thorax 12.1949 0.426657 -3.37486
lowerneck -14.9487 10.2961 8.86674
upperneck 26.6528 15.7372 -7.16622
head 12.6202 7.45541 -1.55224
rclavicle 2.36554e-014 2.8625e-014
rhumerus 30.2775 69.7646 -69.421
rradius 101.923
rwrist -6.79446
rhand -1.17807 -17.0903
rfingers 7.12502
rthumb 24.4615 -45.5484
lclavicle 2.36554e-014 2.8625e-014
lhumerus -16.8637 -49.0338 100.273
lradius 95.274
lwrist 36.618
lhand 2.58417 -11.5346
lfingers 7.12502
lthumb 28.0631 16.3864
rfemur -17.8944 -5.69611 24.6612
rtibia 24.0437
rfoot -33.7709 -30.6715
rtoes 24.702
lfemur -30.6104 13.5227 -13.3852
ltibia 45.6304
lfoot -5.21394 14.957
ltoes -12.1958
3
root -25.557 16.515 1.44422 -167.148 29.4107 175.668
lowerback -22.9981 1.36306 7.96428
upperback -0.576419 -0.187643 1.23895
thorax 12.2744 0.458573 -3.19776
lowerneck -14.8796 10.35 8.78292
upperneck 26.4061 15.8213 -7.26709
head 12.5179 7.47396 -1.56935
rclavicle 8.3589e-014 -3.33958e-014
rhumerus 30.4241 69.9111 -69.1106
rradius 101.839
rwrist -6.05581
rhand -1.91808 -16.889
rfingers 7.12502
rthumb 23.752 -45.4411
lclavicle 8.3589e-014 -3.33958e-014
lhumerus -16.8181 -48.9079 100.332
lradius 95.314
lwrist 36.3561
lhand 2.71609 -11.6057
lfingers 7.12502
lthumb 28.1892 16.2946
rfemur -17.8289 -5.69797 24.2785
rtibia 23.8325
rfoot -33.1476 -30.4413
rtoes 25.4367
lfemur -30.9934 13.3154 -13.7647
ltibia 45.8867
lfoot -5.31763 14.4925
ltoes -13.2563
4
root -25.5509 16.5196 1.42311 -167.288 29.7745 175.922
lowerback -22.7422 1.38136 8.06699
upperback -0.498727 -0.181585 1.26077
thorax 12.2232 0.462632 -3.22976
lowerneck -14.7112 10.414 8.94213
upperneck 26.1903 15.8742 -7.37477
head 12.429 7.50438 -1.63609
rclavicle 3.21037e-014 3.02153e-014
rhumerus 29.7983 69.9382 -69.8287
rradius 101.815
rwrist -5.60464
rhand -2.04314 -16.6102
rfingers 7.12502
rthumb 23.632 -45.1778
lclavicle 3.21037e-014 3.02153e-014
lhumerus -16.8547 -48.7967 100.34
lradius 95.2065
lwrist 35.9447
lhand 2.92031 -11.5023
lfingers 7.12502
lthumb 28.3844 16.3657
rfemur -17.3973 -5.69376 24.4563
rtibia 23.6787
rfoot -32.8109 -30.3951
rtoes 25.0576
lfemur -30.9703 12.7482 -13.2441
ltibia 46.1131
lfoot -6.13572 13.9219
ltoes -12.3785
5
root -25.5521 16.5259 1.39803 -167.443 30.1831 175.927
lowerback -22.6029 1.42073 8.05226
upperback -0.450442 -0.11343 1.16451
thorax 12.2095 0.492891 -3.30872
lowerneck -14.64 10.4294 9.30339
upperneck 26.116 15.8631 -7.60285
head 12.4416 7.50733 -1.78075
rclavicle 3.1408e-014 -3.18055e-015
rhumerus 29.3015 69.9385 -70.493
rradius 101.896
rwrist -5.84859
rhand -2.08863 -17.128
rfingers 7.12502
rthumb 23.5884 -45.7012
lclavicle 3.1408e-014 -3.18055e-015
lhumerus -16.9968 -48.8507 100.413
lradius 95.1144
lwrist 35.6835
lhand 2.51493 -11.6209
lfingers 7.12502
lthumb 27.9969 16.3109
rfemur -17.1165 -6.43954 24.4399
rtibia 23.5091
rfoot -31.9047 -29.8441
rtoes 24.1814
lfemur -30.9548 11.8838 -12.9428
ltibia 46.2027
lfoot -7.61787 13.6139
ltoes -9.78675
